<svg data-v-2cb57da0="" version="1.0" xmlns="http://www.w3.org/2000/svg" xmlns:xlink="http://www.w3.org/1999/xlink"
     width="100%" height="100%" viewBox="0 0 340.000000 250.000000" preserveAspectRatio="xMidYMid meet"
     color-interpolation-filters="sRGB" style="margin: auto;">
    <rect data-v-2cb57da0="" x="0" y="0" width="100%" height="100%" fill="#fff" fill-opacity="1"
          class="background"></rect> <!---->
    <g data-v-2cb57da0="" fill="#333" class="icon-text-wrapper icon-svg-group iconsvg"
       transform="translate(81.19000244140625,96.5216007232666)">
        <g class="iconsvg-imagesvg" transform="translate(0,0)">
            <g>
                <rect fill="#333" fill-opacity="0" stroke-width="2" x="0" y="0" width="60" height="56.956798268513325"
                      class="image-rect"></rect>
                <svg x="0" y="0" width="60" height="56.956798268513325" filtersec="colorsb3379282127"
                     class="image-svg-svg primary" style="overflow: visible;">
                    <svg xmlns="http://www.w3.org/2000/svg" xlink="http://www.w3.org/1999/xlink"
                         viewBox="0 0 88.52000427246094 84.02999877929688">
                        <defs>
                            <linearGradient id="a126c6a47-dfe1-407f-92b6-236556b01361" x1="34.86" y1="2102.48"
                                            x2="88.52" y2="2102.48" gradientTransform="matrix(1 0 0 -1 0 2122.8)"
                                            gradientUnits="userSpaceOnUse">
                                <stop offset="0" stop-color="#00abeb"></stop>
                                <stop offset="1" stop-color="#00426f"></stop>
                            </linearGradient>
                            <linearGradient id="b29d6dab3-7903-41e7-8c70-28639a3f0964" x1="56.79" y1="2072.24" x2="63.5"
                                            y2="2022.02" href="#a126c6a47-dfe1-407f-92b6-236556b01361"></linearGradient>
                            <linearGradient id="c77e829bd-0220-4ecf-834a-afd1c82a97dc" x1="15.84" y1="2051" x2="14.34"
                                            y2="2121.34" href="#a126c6a47-dfe1-407f-92b6-236556b01361"></linearGradient>
                            <linearGradient id="d9e9f8a95-1c26-45de-9276-62a13a054bde" x1="30.76" y1="2083.79" x2="51.7"
                                            y2="2115.72" href="#a126c6a47-dfe1-407f-92b6-236556b01361"></linearGradient>
                            <radialGradient id="e4e467c86-1732-495d-adaf-8de54aec7aa4" cx="58.52" cy="2100.26" r="52.84"
                                            gradientTransform="matrix(1 0 0 -1 0 2122.8)"
                                            href="#a126c6a47-dfe1-407f-92b6-236556b01361"></radialGradient>
                            <linearGradient id="fcd0c6fe2-e929-4498-8b97-dea4995e2292" x1="54.47" y1="2068.8" x2="18.92"
                                            y2="2068.8" href="#a126c6a47-dfe1-407f-92b6-236556b01361"></linearGradient>
                        </defs>
                        <path fill="url(#a126c6a47-dfe1-407f-92b6-236556b01361)"
                              d="M77.01 0L34.86 2.86l26.83 18.89 26.83 18.89L77.01 0z"></path>
                        <path fill="url(#b29d6dab3-7903-41e7-8c70-28639a3f0964)"
                              d="M69.21 84.03L87.82 46.1 58.04 59.9 28.26 73.69l40.95 10.34z"></path>
                        <path fill="url(#c77e829bd-0220-4ecf-834a-afd1c82a97dc)"
                              d="M0 35.24l23.49 35.12 2.99-32.69L29.47 5 0 35.24z"></path>
                        <path fill="url(#d9e9f8a95-1c26-45de-9276-62a13a054bde)"
                              d="M34.86 2.86l-2.95 32.68 29.78-13.79L34.86 2.86z"></path>
                        <path fill="url(#e4e467c86-1732-495d-adaf-8de54aec7aa4)"
                              d="M60.98 27.21l-2.94 32.68 29.78-13.78-26.84-18.9z"></path>
                        <path fill="url(#fcd0c6fe2-e929-4498-8b97-dea4995e2292)"
                              d="M26.45 37.65l-2.94 32.68 29.77-13.79-26.83-18.89z"></path>
                    </svg>
                </svg> <!---->
            </g>
        </g>
        <g transform="translate(71,2.403400421142578)">
            <g data-gra="path-name" fill-rule="" class="tp-name iconsvg-namesvg">
                <g transform="scale(1)">
                    <g>
                        <path d="M9.78-37.71L9.78-11.66 13.05-11.66 13.05-37.71 9.78-37.71ZM50.17-11.33L50.7-11.33 50.6-4.73Q52.64-4.03 53.28-3.46 53.93-2.9 53.93-1.72L53.93-1.72Q53.93 3.33 42.54 3.33L42.54 3.33 33.41 3.33Q27.34 3.33 24.55 1.45 21.75-0.43 21.48-4.19L21.48-4.19Q21.32-5.64 21.81-7.04 22.29-8.43 23.93-10.45 25.57-12.46 26.86-13.86 28.14-15.25 31.5-18.58 34.86-21.91 36.85-23.96L36.85-23.96 22.13-23.96 21.59-25.51 37.65-25.51 40.5-28.74Q39.05-28.57 38.99-28.57L38.99-28.57 37.71-28.57 37.71-36.31 32.87-36.31 32.87-29.65Q32.87-29.43 32.01-29.06 31.15-28.68 29.78-28.39 28.41-28.09 27.23-28.09L27.23-28.09 25.94-28.09 25.94-36.31 21.38-36.31 21.16-37.06Q20.46-36.74 19.82-36.63L19.82-36.63 19.82-7.68Q19.77-7.2 17.78-6.34 15.79-5.48 14.13-5.48L14.13-5.48 13.05-5.48 13.05-10.1 9.78-10.1 9.78-4.4Q9.78-3.76 8.03-2.9 6.28-2.04 4.24-2.04L4.24-2.04 3.17-2.04 3.17-42.11 9.99-39.26 12.46-39.26 15.68-42.81 22.02-37.87 25.94-37.87 25.94-46.41 34.43-45.71Q34.32-44.69 32.87-44.42L32.87-44.42 32.87-37.87 37.71-37.87 37.71-46.41 46.14-45.71Q45.92-44.69 44.58-44.42L44.58-44.42 44.58-37.87 44.74-37.87 48.07-42.27Q51.83-39.26 54.09-37.17L54.09-37.17Q53.87-36.31 52.53-36.31L52.53-36.31 44.58-36.31 44.58-30.13Q44.58-29.97 44.18-29.76 43.77-29.54 43.02-29.3 42.27-29.06 41.41-28.9L41.41-28.9 48.23-23.2Q47.43-22.34 45.39-22.24L45.39-22.24Q36.85-14.45 33.25-10.55 29.65-6.66 29.81-5.26L29.81-5.26Q29.92-4.35 30.96-4.08 32.01-3.81 34.16-3.81L34.16-3.81 42.65-3.81Q46.73-3.81 47.43-4.62L47.43-4.62Q48.82-6.66 50.17-11.33L50.17-11.33ZM59.35-46.14L59.35-46.14 59.78-46.41Q68.11-45.71 70.36-41.73L70.36-41.73Q71.76-39.37 70.25-37.28L70.25-37.28Q68.8-35.23 66.28-35.77L66.28-35.77Q65.26-35.99 64.29-36.63L64.29-36.63Q63.22-41.2 59.35-46.14ZM75.84-12.35L75.84-12.35 76.05-11.92Q72.35-5.75 67.35 0.64L67.35 0.64Q66.76 2.85 65.21 3.97L65.21 3.97 59.67-4.08Q61.71-5.32 62.3-5.96 62.9-6.61 62.9-7.57L62.9-7.57 62.9-30.56 56.72-30.56 56.24-32.12 63.06-32.12 66.44-35.45 72.62-30.35Q72.08-29.59 70.25-29.38L70.25-29.38 70.25-9.08Q73.64-10.96 75.84-12.35ZM84.76-13L84.76-0.38 95.82-0.38 95.82-13 84.76-13ZM85.08-14.5L95.28-14.5 98.67-18.26 105.76-12.94Q105.11-12.08 103.55-11.71L103.55-11.71 103.55 3.01Q103.5 3.22 102.45 3.6 101.41 3.97 99.85 4.32 98.29 4.67 97.11 4.67L97.11 4.67 95.82 4.67 95.82 1.18 84.76 1.18 84.76 2.69Q84.76 3.06 83.82 3.63 82.88 4.19 81.26 4.65 79.65 5.1 78.15 5.1L78.15 5.1 77.08 5.1 77.08-17.62 85.08-14.5ZM94.75-20.57L94.75-31.31 89.59-31.31Q88.19-24.76 87.07-20.57L87.07-20.57 94.75-20.57ZM102.21-30.4L102.21-21.48 104.58-25.03Q107.91-21.97 109.79-19.93L109.79-19.93Q109.62-19.01 108.33-19.01L108.33-19.01 72.03-19.01 71.6-20.57 79.44-20.57Q80.94-26.75 81.8-31.31L81.8-31.31 74.71-31.31 74.17-32.82 82.12-32.82Q82.34-33.89 82.82-36.6 83.31-39.32 83.52-40.55L83.52-40.55 74.07-40.55 73.64-42.06 96.89-42.06 100.55-47.05Q104.63-43.67 106.99-41.41L106.99-41.41Q106.83-40.55 105.43-40.55L105.43-40.55 91.47-40.55Q91.25-39.26 90.69-36.6 90.13-33.95 89.91-32.82L89.91-32.82 94.21-32.82 97.59-36.31 104.15-31.42Q103.5-30.67 102.21-30.4L102.21-30.4Z"
                              transform="translate(-3.1700000762939453, 47.04999923706055)"></path>
                    </g> <!----> <!----> <!----> <!----> <!----> <!----> <!---->
                </g>
            </g> <!---->
        </g>
    </g>
    <defs v-gra="od"></defs>
</svg>
